<?xml version="1.0" encoding="UTF-8" standalone="no"?>
<svg
   version="1.0"
   width="900"
   height="900"
   id="svg453"
   sodipodi:docname="Sierpinski_carpet_6_marked.svg"
   inkscape:version="1.2 (dc2aedaf03, 2022-05-15)"
   xmlns:inkscape="http://www.inkscape.org/namespaces/inkscape"
   xmlns:sodipodi="http://sodipodi.sourceforge.net/DTD/sodipodi-0.dtd"
   xmlns:xlink="http://www.w3.org/1999/xlink"
   xmlns="http://www.w3.org/2000/svg"
   xmlns:svg="http://www.w3.org/2000/svg">
  <sodipodi:namedview
     id="namedview455"
     pagecolor="#ffffff"
     bordercolor="#000000"
     borderopacity="0.25"
     inkscape:showpageshadow="2"
     inkscape:pageopacity="0.0"
     inkscape:pagecheckerboard="0"
     inkscape:deskcolor="#d1d1d1"
     showgrid="false"
     inkscape:zoom="0.77444444"
     inkscape:cx="449.35438"
     inkscape:cy="450.64562"
     inkscape:window-width="1600"
     inkscape:window-height="877"
     inkscape:window-x="-8"
     inkscape:window-y="70"
     inkscape:window-maximized="1"
     inkscape:current-layer="svg453" />
  <defs
     id="defs431">
    <symbol
       id="s"
       viewBox="0 0 3 3">
      <rect
         fill="#000"
         width="1"
         height="1"
         x="1"
         y="1"
         id="rect352" />
    </symbol>
    <symbol
       id="s1"
       viewBox="0 0 900 900">
      <use
         xlink:href="#s"
         x="0"
         y="0"
         width="900"
         height="900"
         id="use355" />
      <use
         xlink:href="#s"
         x="0"
         y="0"
         width="300"
         height="300"
         id="use357" />
      <use
         xlink:href="#s"
         x="300"
         y="0"
         width="300"
         height="300"
         id="use359" />
      <use
         xlink:href="#s"
         x="600"
         y="0"
         width="300"
         height="300"
         id="use361" />
      <use
         xlink:href="#s"
         x="0"
         y="300"
         width="300"
         height="300"
         id="use363" />
      <use
         xlink:href="#s"
         x="600"
         y="300"
         width="300"
         height="300"
         id="use365" />
      <use
         xlink:href="#s"
         x="0"
         y="600"
         width="300"
         height="300"
         id="use367" />
      <use
         xlink:href="#s"
         x="300"
         y="600"
         width="300"
         height="300"
         id="use369" />
      <use
         xlink:href="#s"
         x="600"
         y="600"
         width="300"
         height="300"
         id="use371" />
    </symbol>
    <symbol
       id="s2"
       viewBox="0 0 900 900">
      <use
         xlink:href="#s"
         x="0"
         y="0"
         width="900"
         height="900"
         id="use374" />
      <use
         xlink:href="#s1"
         x="0"
         y="0"
         width="300"
         height="300"
         id="use376" />
      <use
         xlink:href="#s1"
         x="300"
         y="0"
         width="300"
         height="300"
         id="use378" />
      <use
         xlink:href="#s1"
         x="600"
         y="0"
         width="300"
         height="300"
         id="use380" />
      <use
         xlink:href="#s1"
         x="0"
         y="300"
         width="300"
         height="300"
         id="use382" />
      <use
         xlink:href="#s1"
         x="600"
         y="300"
         width="300"
         height="300"
         id="use384" />
      <use
         xlink:href="#s1"
         x="0"
         y="600"
         width="300"
         height="300"
         id="use386" />
      <use
         xlink:href="#s1"
         x="300"
         y="600"
         width="300"
         height="300"
         id="use388" />
      <use
         xlink:href="#s1"
         x="600"
         y="600"
         width="300"
         height="300"
         id="use390" />
    </symbol>
    <symbol
       id="s3"
       viewBox="0 0 900 900">
      <use
         xlink:href="#s"
         x="0"
         y="0"
         width="900"
         height="900"
         id="use393" />
      <use
         xlink:href="#s2"
         x="0"
         y="0"
         width="300"
         height="300"
         id="use395" />
      <use
         xlink:href="#s2"
         x="300"
         y="0"
         width="300"
         height="300"
         id="use397" />
      <use
         xlink:href="#s2"
         x="600"
         y="0"
         width="300"
         height="300"
         id="use399" />
      <use
         xlink:href="#s2"
         x="0"
         y="300"
         width="300"
         height="300"
         id="use401" />
      <use
         xlink:href="#s2"
         x="600"
         y="300"
         width="300"
         height="300"
         id="use403" />
      <use
         xlink:href="#s2"
         x="0"
         y="600"
         width="300"
         height="300"
         id="use405" />
      <use
         xlink:href="#s2"
         x="300"
         y="600"
         width="300"
         height="300"
         id="use407" />
      <use
         xlink:href="#s2"
         x="600"
         y="600"
         width="300"
         height="300"
         id="use409" />
    </symbol>
    <symbol
       id="s4"
       viewBox="0 0 900 900">
      <use
         xlink:href="#s"
         x="0"
         y="0"
         width="900"
         height="900"
         id="use412" />
      <use
         xlink:href="#s3"
         x="0"
         y="0"
         width="300"
         height="300"
         id="use414" />
      <use
         xlink:href="#s3"
         x="300"
         y="0"
         width="300"
         height="300"
         id="use416" />
      <use
         xlink:href="#s3"
         x="600"
         y="0"
         width="300"
         height="300"
         id="use418" />
      <use
         xlink:href="#s3"
         x="0"
         y="300"
         width="300"
         height="300"
         id="use420" />
      <use
         xlink:href="#s3"
         x="600"
         y="300"
         width="300"
         height="300"
         id="use422" />
      <use
         xlink:href="#s3"
         x="0"
         y="600"
         width="300"
         height="300"
         id="use424" />
      <use
         xlink:href="#s3"
         x="300"
         y="600"
         width="300"
         height="300"
         id="use426" />
      <use
         xlink:href="#s3"
         x="600"
         y="600"
         width="300"
         height="300"
         id="use428" />
    </symbol>
  </defs>
  <rect
     width="900"
     height="900"
     fill="#fff"
     id="rect433" />
  <use
     xlink:href="#s"
     x="0"
     y="0"
     width="900"
     height="900"
     id="use435" />
  <use
     xlink:href="#s4"
     x="0"
     y="0"
     width="300"
     height="300"
     id="use437" />
  <use
     xlink:href="#s4"
     x="300"
     y="0"
     width="300"
     height="300"
     id="use439" />
  <use
     xlink:href="#s4"
     x="600"
     y="0"
     width="300"
     height="300"
     id="use441" />
  <use
     xlink:href="#s4"
     x="0"
     y="300"
     width="300"
     height="300"
     id="use443" />
  <use
     xlink:href="#s4"
     x="600"
     y="300"
     width="300"
     height="300"
     id="use445" />
  <use
     xlink:href="#s4"
     x="0"
     y="600"
     width="300"
     height="300"
     id="use447" />
  <path
     sodipodi:type="star"
     style="fill:#ff0000"
     id="path806-7"
     inkscape:flatsided="true"
     sodipodi:sides="5"
     sodipodi:cx="167.86227"
     sodipodi:cy="439.02438"
     sodipodi:r1="21.490652"
     sodipodi:r2="17.386305"
     sodipodi:arg1="0.57133748"
     sodipodi:arg2="1.199656"
     inkscape:rounded="0"
     inkscape:randomized="0"
     d="m 185.93975,450.64562 -23.54368,9.16262 -15.98957,-19.55996 13.66158,-21.25134 24.43289,6.4259 z"
     inkscape:transform-center-x="1.6891497"
     inkscape:transform-center-y="0.37820511"
     transform="translate(71.416546,377.95753)" />
  <use
     xlink:href="#s4"
     x="300"
     y="600"
     width="300"
     height="300"
     id="use449" />
  <use
     xlink:href="#s4"
     x="600"
     y="600"
     width="300"
     height="300"
     id="use451" />
  <path
     sodipodi:type="star"
     style="fill:#008000"
     id="path673"
     inkscape:flatsided="false"
     sodipodi:sides="5"
     sodipodi:cx="77.474892"
     sodipodi:cy="442.89813"
     sodipodi:r1="19.368723"
     sodipodi:r2="9.6843624"
     sodipodi:arg1="0.92729522"
     sodipodi:arg2="1.5556137"
     inkscape:rounded="0"
     inkscape:randomized="0"
     d="m 89.096125,458.39311 -11.474205,-5.81173 -11.29247,6.15741 1.981561,-12.70854 -9.345615,-8.83703 12.698878,-2.04258 5.516562,-11.619 5.866777,11.44616 12.755038,1.65609 -9.073011,9.1167 z"
     inkscape:transform-center-x="0.090868256"
     inkscape:transform-center-y="-1.7629145" />
  <path
     sodipodi:type="star"
     style="fill:#008000"
     id="path673-3"
     inkscape:flatsided="false"
     sodipodi:sides="5"
     sodipodi:cx="77.474892"
     sodipodi:cy="442.89813"
     sodipodi:r1="19.368723"
     sodipodi:r2="9.6843624"
     sodipodi:arg1="0.92729522"
     sodipodi:arg2="1.5556137"
     inkscape:rounded="0"
     inkscape:randomized="0"
     d="m 89.096125,458.39311 -11.474205,-5.81173 -11.29247,6.15741 1.981561,-12.70854 -9.345615,-8.83703 12.698878,-2.04258 5.516562,-11.619 5.866777,11.44616 12.755038,1.65609 -9.073011,9.1167 z"
     inkscape:transform-center-x="0.090868256"
     inkscape:transform-center-y="-1.7629145"
     transform="translate(68.527025,373.6424)" />
  <path
     sodipodi:type="star"
     style="fill:#ff0000"
     id="path806"
     inkscape:flatsided="true"
     sodipodi:sides="5"
     sodipodi:cx="167.86227"
     sodipodi:cy="439.02438"
     sodipodi:r1="21.490652"
     sodipodi:r2="17.386305"
     sodipodi:arg1="0.57133748"
     sodipodi:arg2="1.199656"
     inkscape:rounded="0"
     inkscape:randomized="0"
     d="m 185.93975,450.64562 -23.54368,9.16262 -15.98957,-19.55996 13.66158,-21.25134 24.43289,6.4259 z"
     inkscape:transform-center-x="1.6891497"
     inkscape:transform-center-y="0.37820511"
     transform="translate(43.902439,9.0387374)" />
</svg>
